<svg width="20" height="17" viewBox="0 0 20 17" fill="none" xmlns="http://www.w3.org/2000/svg">
<path d="M18.3754 7.01986L10.7579 7.01953C10.4216 7.01953 10.1489 7.26758 10.1489 7.57365V9.78782C10.1489 10.0938 10.4216 10.3419 10.7579 10.3419H15.0476C14.5779 11.4511 13.7012 12.38 12.5826 12.9703L14.4117 15.8513C17.3459 14.3073 19.0805 11.5982 19.0805 8.56545C19.0805 8.13364 19.0456 7.82495 18.9756 7.47737C18.9224 7.21329 18.6704 7.01986 18.3754 7.01986Z" fill="#167EE6"/>
<path d="M9.74238 13.67C7.6431 13.67 5.81045 12.6264 4.82617 11.082L1.65991 12.7426C3.2712 15.2836 6.28965 16.9947 9.74238 16.9947C11.4362 16.9947 13.0344 16.5797 14.4112 15.8566V15.8526L12.5821 12.9715C11.7454 13.4131 10.7772 13.67 9.74238 13.67Z" fill="#12B347"/>
<path d="M14.4117 15.8538V15.8498L12.5826 12.9688C11.7459 13.4103 10.7778 13.6673 9.74292 13.6673V16.9919C11.4367 16.9919 13.035 16.5769 14.4117 15.8538Z" fill="#0F993E"/>
<path d="M4.05986 8.49614C4.05986 7.55461 4.34225 6.67376 4.8274 5.91251L1.66115 4.25195C0.862017 5.50074 0.406006 6.95101 0.406006 8.49614C0.406006 10.0413 0.862017 11.4915 1.66115 12.7403L4.8274 11.0798C4.34225 10.3185 4.05986 9.43767 4.05986 8.49614Z" fill="#FFD500"/>
<path d="M9.74238 3.32463C11.1113 3.32463 12.3688 3.76723 13.3509 4.50346C13.5932 4.68506 13.9454 4.67195 14.1674 4.47L15.8915 2.90118C16.1434 2.67204 16.1254 2.29698 15.8564 2.08464C14.2108 0.785673 12.0697 0 9.74238 0C6.28965 0 3.2712 1.7111 1.65991 4.25209L4.82617 5.91264C5.81044 4.36828 7.6431 3.32463 9.74238 3.32463Z" fill="#FF4B26"/>
<path d="M13.3515 4.50346C13.5938 4.68506 13.946 4.67195 14.1679 4.47L15.8921 2.90118C16.1439 2.67204 16.1259 2.29698 15.8569 2.08464C14.2114 0.78564 12.0703 0 9.74292 0V3.32463C11.1118 3.32463 12.3693 3.76723 13.3515 4.50346Z" fill="#D93F21"/>
</svg>
